<svg version="1.2" xmlns="http://www.w3.org/2000/svg" viewBox="0 0 46 45" width="46" height="45"><style>.a{fill:#47c9f7}</style><path fill-rule="evenodd" class="a" d="m23.5 0c12.4 0 22.5 10.1 22.5 22.5 0 12.4-10.1 22.5-22.5 22.5-12.4 0-22.5-10.1-22.5-22.5 0-12.4 10.1-22.5 22.5-22.5zm-19.6 22.6c0 10.9 8.8 19.6 19.6 19.6 10.8 0 19.6-8.7 19.6-19.6 0-10.8-8.8-19.6-19.6-19.6-10.8 0-19.6 8.8-19.6 19.6z"/><path fill-rule="evenodd" class="a" d="m31 28.1c-0.2 1.4-0.9 2.7-2 3.6-1.2 0.9-2.7 1.4-4.2 1.5v1.6c0 0.4-0.2 0.8-0.5 1.1-0.5 0.3-1.1 0.4-1.6 0.2-0.6-0.2-0.9-0.8-0.9-1.3v-1.8q-0.4 0-0.8-0.1c-1.4-0.4-2.6-1.2-3.6-2.3q-0.7-0.8-1.1-1.8-0.1-0.3-0.2-0.6-0.1-0.2-0.1-0.5-0.1-0.4 0.1-0.8c0.3-0.5 0.9-0.8 1.5-0.8 0.6 0.1 1.1 0.5 1.3 1q0 0.3 0.1 0.5 0.1 0.3 0.3 0.5 0.2 0.5 0.6 0.9c0.5 0.5 1.2 0.8 1.9 1v-5.9c-1.4-0.3-2.8-0.8-3.9-1.7-0.5-0.4-1-0.9-1.3-1.5-0.3-0.7-0.5-1.4-0.5-2.1q0-1.2 0.5-2.2 0.4-0.9 1.2-1.7c1.1-1 2.5-1.5 4-1.7v-1.7c0-0.4 0.2-0.8 0.5-1.1 0.4-0.4 1.1-0.5 1.6-0.2 0.5 0.2 0.9 0.8 0.9 1.3v1.7q0.3 0 0.5 0c1.5 0.3 2.9 0.9 3.9 1.9q0.8 0.8 1.2 1.7 0.1 0.3 0.2 0.6 0.1 0.2 0.2 0.5 0 0.4-0.2 0.8c-0.2 0.6-0.8 0.9-1.4 0.9-0.6 0-1.1-0.4-1.3-1-0.1-0.1-0.1-0.3-0.2-0.4q0-0.3-0.2-0.5-0.3-0.4-0.7-0.7c-0.6-0.5-1.3-0.7-2-0.8v5.6c0.8 0.2 1.7 0.4 2.5 0.7 1.2 0.5 2.4 1.3 3.1 2.4-0.1-0.2-0.2-0.3 0 0 0.2 0.4 0.1 0.2 0 0 0.5 1 0.7 2.1 0.6 3.2zm-11.9-9.5c0 2 2.8 2.3 2.8 2.3v-4.8c0 0-2.8 0.5-2.8 2.5zm5.7 11.8c0 0 3.4-0.6 3.4-2.8 0-2.3-3.4-2.9-3.4-2.9zm3-1.7q0 0 0 0 0 0 0 0zm0-0.1q0 0 0 0.1 0-0.1 0-0.1zm0 0q0 0 0 0zm0 0.1q0 0-0.1 0 0.1 0 0.1 0z"/></svg>