<svg version="1.2" xmlns="http://www.w3.org/2000/svg" viewBox="0 0 45 45" width="45" height="45"><style>.a{fill:#47c9f7}</style><path fill-rule="evenodd" class="a" d="m22.5 31c-5.2 0-9.6 2.6-12.3 6.6h-3.6q1.2-2.1 2.9-3.9c2-2 4.4-3.4 7-4.3-2.8-2-4-5.9-4-9.3 0-5.6 4.5-10.1 10-10.1 5.5 0 10 4.5 10 10.1 0 3.4-1.2 7.3-4 9.3 2.6 0.9 5 2.3 7 4.3q1.7 1.8 2.9 3.9h-3.6c-2.7-4-7.1-6.6-12.3-6.6zm7.5-10.5c0-4.1-3.4-7.5-7.5-7.5-4.1 0-7.5 3.4-7.5 7.5 0 4.2 2.7 8.5 7.5 8.5 4.8 0 7.5-4.3 7.5-8.5z"/><path fill-rule="evenodd" class="a" d="m22.5 0c12.4 0 22.4 10 22.4 22.4 0 12.3-10 22.3-22.4 22.3-12.4 0-22.4-10-22.4-22.3 0-12.4 10-22.4 22.4-22.4zm-19.5 22.5c0 10.8 8.7 19.5 19.5 19.5 10.8 0 19.5-8.7 19.5-19.5 0-10.8-8.7-19.5-19.5-19.5-10.8 0-19.5 8.7-19.5 19.5z"/></svg>